<svg xmlns="http://www.w3.org/2000/svg" width="1920" height="1080" viewBox="0 0 1920 1080">
<rect width="1920" height="1080" fill="none"/>
<polygon points="901.4,-118.0 1055.9,-118.0 916.9,16.6" fill="#1273bf"/>
<polygon points="1055.9,-118.0 1055.3,-17.1 916.9,16.6" fill="#1062a3"/>
<polygon points="1055.9,-118.0 1140.4,-118.0 1187.9,-4.3" fill="#1275c2"/>
<polygon points="1055.9,-118.0 1187.9,-4.3 1055.3,-17.1" fill="#126fb9"/>
<polygon points="1140.4,-118.0 1260.3,-118.0 1187.9,-4.3" fill="#1064a6"/>
<polygon points="1260.3,-118.0 1279.6,27.1 1187.9,-4.3" fill="#1168ad"/>
<polygon points="1260.3,-118.0 1409.1,-118.0 1434.3,-23.5" fill="#1169ae"/>
<polygon points="1260.3,-118.0 1434.3,-23.5 1279.6,27.1" fill="#1067ac"/>
<polygon points="1409.1,-118.0 1564.1,-118.0 1434.3,-23.5" fill="#137acb"/>
<polygon points="1564.1,-118.0 1540.8,2.3 1434.3,-23.5" fill="#116cb3"/>
<polygon points="1564.1,-118.0 1617.4,-118.0 1686.5,21.1" fill="#1273bf"/>
<polygon points="1564.1,-118.0 1686.5,21.1 1540.8,2.3" fill="#1271bc"/>
<polygon points="1617.4,-118.0 1744.5,-118.0 1686.5,21.1" fill="#1064a6"/>
<polygon points="1744.5,-118.0 1750.5,44.2 1686.5,21.1" fill="#1168ae"/>
<polygon points="1744.5,-118.0 1899.7,-118.0 1852.9,-7.5" fill="#116ab0"/>
<polygon points="1744.5,-118.0 1852.9,-7.5 1750.5,44.2" fill="#1063a4"/>
<polygon points="1899.7,-118.0 2047.2,-118.0 1852.9,-7.5" fill="#1169ae"/>
<polygon points="2047.2,-118.0 2029.7,-32.0 1852.9,-7.5" fill="#1273bf"/>
<polygon points="2047.2,-118.0 2124.0,-118.0 2124.0,-1.0" fill="#1169af"/>
<polygon points="2047.2,-118.0 2124.0,-1.0 2029.7,-32.0" fill="#116eb6"/>
<polygon points="916.9,16.6 1055.3,-17.1 1042.2,107.5" fill="#136faf"/>
<polygon points="916.9,16.6 1042.2,107.5 989.4,147.6" fill="#1989c9"/>
<polygon points="1055.3,-17.1 1187.9,-4.3 1042.2,107.5" fill="#147cc5"/>
<polygon points="1187.9,-4.3 1195.5,74.1 1042.2,107.5" fill="#198bd4"/>
<polygon points="1187.9,-4.3 1279.6,27.1 1294.5,87.5" fill="#126cab"/>
<polygon points="1187.9,-4.3 1294.5,87.5 1195.5,74.1" fill="#157dc1"/>
<polygon points="1279.6,27.1 1434.3,-23.5 1294.5,87.5" fill="#1371b5"/>
<polygon points="1434.3,-23.5 1380.8,77.4 1294.5,87.5" fill="#1577ba"/>
<polygon points="1434.3,-23.5 1540.8,2.3 1558.7,83.9" fill="#147dca"/>
<polygon points="1434.3,-23.5 1558.7,83.9 1380.8,77.4" fill="#1682cb"/>
<polygon points="1540.8,2.3 1686.5,21.1 1558.7,83.9" fill="#136eaf"/>
<polygon points="1686.5,21.1 1628.8,108.0 1558.7,83.9" fill="#1989cf"/>
<polygon points="1686.5,21.1 1750.5,44.2 1804.2,79.4" fill="#1477b8"/>
<polygon points="1686.5,21.1 1804.2,79.4 1628.8,108.0" fill="#167fc0"/>
<polygon points="1750.5,44.2 1852.9,-7.5 1804.2,79.4" fill="#157cc2"/>
<polygon points="1852.9,-7.5 1883.3,122.5 1804.2,79.4" fill="#167ec0"/>
<polygon points="1852.9,-7.5 2029.7,-32.0 2041.3,147.4" fill="#126cac"/>
<polygon points="1852.9,-7.5 2041.3,147.4 1883.3,122.5" fill="#1a92d7"/>
<polygon points="2029.7,-32.0 2124.0,-1.0 2041.3,147.4" fill="#1785d1"/>
<polygon points="2124.0,-1.0 2124.0,151.5 2041.3,147.4" fill="#1883c0"/>
<polygon points="989.4,147.6 1042.2,107.5 961.5,237.4" fill="#1b90c2"/>
<polygon points="1042.2,107.5 1072.8,252.2 961.5,237.4" fill="#1b9cc9"/>
<polygon points="1042.2,107.5 1195.5,74.1 1139.0,272.8" fill="#1fa3e0"/>
<polygon points="1042.2,107.5 1139.0,272.8 1072.8,252.2" fill="#1a9bc5"/>
<polygon points="1195.5,74.1 1294.5,87.5 1139.0,272.8" fill="#1c92ca"/>
<polygon points="1294.5,87.5 1323.8,270.5 1139.0,272.8" fill="#1ba0cb"/>
<polygon points="1294.5,87.5 1380.8,77.4 1443.4,226.1" fill="#1a88c1"/>
<polygon points="1294.5,87.5 1443.4,226.1 1323.8,270.5" fill="#1eb0e4"/>
<polygon points="1380.8,77.4 1558.7,83.9 1443.4,226.1" fill="#1b8ac4"/>
<polygon points="1558.7,83.9 1524.7,199.5 1443.4,226.1" fill="#21afeb"/>
<polygon points="1558.7,83.9 1628.8,108.0 1664.4,195.7" fill="#1a88c0"/>
<polygon points="1558.7,83.9 1664.4,195.7 1524.7,199.5" fill="#1b8dc1"/>
<polygon points="1628.8,108.0 1804.2,79.4 1664.4,195.7" fill="#1986be"/>
<polygon points="1804.2,79.4 1730.2,209.2 1664.4,195.7" fill="#1c93c9"/>
<polygon points="1804.2,79.4 1883.3,122.5 1856.9,221.3" fill="#20a4e4"/>
<polygon points="1804.2,79.4 1856.9,221.3 1730.2,209.2" fill="#1d9acf"/>
<polygon points="1883.3,122.5 2041.3,147.4 1856.9,221.3" fill="#1e9dd5"/>
<polygon points="2041.3,147.4 1964.8,190.0 1856.9,221.3" fill="#1b9aca"/>
<polygon points="2041.3,147.4 2124.0,151.5 2124.0,203.9" fill="#1c95c9"/>
<polygon points="2041.3,147.4 2124.0,203.9 1964.8,190.0" fill="#1a91c1"/>
<polygon points="961.5,237.4 1072.8,252.2 1030.9,310.1" fill="#1bbedf"/>
<polygon points="1072.8,252.2 1139.0,272.8 1030.9,310.1" fill="#1bc2e0"/>
<polygon points="1139.0,272.8 1221.5,356.6 1030.9,310.1" fill="#16a3b0"/>
<polygon points="1139.0,272.8 1323.8,270.5 1265.5,358.0" fill="#18b3c9"/>
<polygon points="1139.0,272.8 1265.5,358.0 1221.5,356.6" fill="#1dc4c6"/>
<polygon points="1323.8,270.5 1443.4,226.1 1265.5,358.0" fill="#18b6d0"/>
<polygon points="1443.4,226.1 1372.5,356.6 1265.5,358.0" fill="#18b1bf"/>
<polygon points="1443.4,226.1 1524.7,199.5 1578.0,387.4" fill="#169cb6"/>
<polygon points="1443.4,226.1 1578.0,387.4 1372.5,356.6" fill="#18a8af"/>
<polygon points="1524.7,199.5 1664.4,195.7 1578.0,387.4" fill="#19b2d2"/>
<polygon points="1664.4,195.7 1670.1,332.0 1578.0,387.4" fill="#16a4b6"/>
<polygon points="1664.4,195.7 1730.2,209.2 1757.7,323.4" fill="#1aafd4"/>
<polygon points="1664.4,195.7 1757.7,323.4 1670.1,332.0" fill="#15a0b8"/>
<polygon points="1730.2,209.2 1856.9,221.3 1757.7,323.4" fill="#1aabce"/>
<polygon points="1856.9,221.3 1913.0,357.0 1757.7,323.4" fill="#17aec4"/>
<polygon points="1856.9,221.3 1964.8,190.0 2031.7,338.3" fill="#1aaed1"/>
<polygon points="1856.9,221.3 2031.7,338.3 1913.0,357.0" fill="#16abbd"/>
<polygon points="1964.8,190.0 2124.0,203.9 2031.7,338.3" fill="#1cbbe2"/>
<polygon points="2124.0,203.9 2124.0,328.5 2031.7,338.3" fill="#1abfdb"/>
<polygon points="1030.9,310.1 1049.5,446.3 988.9,513.9" fill="#2ab877"/>
<polygon points="1030.9,310.1 1221.5,356.6 1154.9,444.1" fill="#1ea58e"/>
<polygon points="1030.9,310.1 1154.9,444.1 1049.5,446.3" fill="#23a87d"/>
<polygon points="1221.5,356.6 1265.5,358.0 1154.9,444.1" fill="#20a684"/>
<polygon points="1265.5,358.0 1270.8,483.4 1154.9,444.1" fill="#2ab975"/>
<polygon points="1265.5,358.0 1372.5,356.6 1452.8,503.3" fill="#28c18b"/>
<polygon points="1265.5,358.0 1452.8,503.3 1270.8,483.4" fill="#28a25a"/>
<polygon points="1372.5,356.6 1578.0,387.4 1452.8,503.3" fill="#26ac75"/>
<polygon points="1578.0,387.4 1532.1,486.1 1452.8,503.3" fill="#30bf61"/>
<polygon points="1578.0,387.4 1670.1,332.0 1679.6,433.8" fill="#21ac8a"/>
<polygon points="1578.0,387.4 1679.6,433.8 1532.1,486.1" fill="#2dc175"/>
<polygon points="1670.1,332.0 1757.7,323.4 1679.6,433.8" fill="#1c9f8d"/>
<polygon points="1757.7,323.4 1784.8,509.7 1679.6,433.8" fill="#26aa70"/>
<polygon points="1757.7,323.4 1913.0,357.0 1914.0,495.0" fill="#25be94"/>
<polygon points="1757.7,323.4 1914.0,495.0 1784.8,509.7" fill="#2ec270"/>
<polygon points="1913.0,357.0 2031.7,338.3 1914.0,495.0" fill="#22a980"/>
<polygon points="2031.7,338.3 2004.0,442.4 1914.0,495.0" fill="#2bbf7b"/>
<polygon points="2031.7,338.3 2124.0,328.5 2124.0,498.6" fill="#1f9e7c"/>
<polygon points="2031.7,338.3 2124.0,498.6 2004.0,442.4" fill="#26aa6d"/>
<polygon points="1049.5,446.3 1154.9,444.1 1017.3,633.3" fill="#36a043"/>
<polygon points="1154.9,444.1 1193.8,592.4 1017.3,633.3" fill="#59c64a"/>
<polygon points="1154.9,444.1 1270.8,483.4 1337.9,583.9" fill="#35a043"/>
<polygon points="1154.9,444.1 1337.9,583.9 1193.8,592.4" fill="#44a641"/>
<polygon points="1270.8,483.4 1452.8,503.3 1337.9,583.9" fill="#41ab45"/>
<polygon points="1452.8,503.3 1450.2,620.0 1337.9,583.9" fill="#60cc4b"/>
<polygon points="1452.8,503.3 1532.1,486.1 1507.4,567.2" fill="#3eaa46"/>
<polygon points="1452.8,503.3 1507.4,567.2 1450.2,620.0" fill="#59bf47"/>
<polygon points="1532.1,486.1 1679.6,433.8 1507.4,567.2" fill="#3ab94f"/>
<polygon points="1679.6,433.8 1633.0,566.1 1507.4,567.2" fill="#40ac45"/>
<polygon points="1679.6,433.8 1784.8,509.7 1778.0,567.9" fill="#3fbc4f"/>
<polygon points="1679.6,433.8 1778.0,567.9 1633.0,566.1" fill="#46ba4b"/>
<polygon points="1784.8,509.7 1914.0,495.0 1778.0,567.9" fill="#3da241"/>
<polygon points="1914.0,495.0 1880.5,556.1 1778.0,567.9" fill="#4bb647"/>
<polygon points="1914.0,495.0 2004.0,442.4 2043.7,576.5" fill="#41c352"/>
<polygon points="1914.0,495.0 2043.7,576.5 1880.5,556.1" fill="#48ad44"/>
<polygon points="2004.0,442.4 2124.0,498.6 2043.7,576.5" fill="#3cb14a"/>
<polygon points="2124.0,498.6 2124.0,586.2 2043.7,576.5" fill="#4cad42"/>
<polygon points="1017.3,633.3 1193.8,592.4 1185.5,684.9" fill="#6db439"/>
<polygon points="1193.8,592.4 1337.9,583.9 1185.5,684.9" fill="#76cd43"/>
<polygon points="1337.9,583.9 1277.5,733.0 1185.5,684.9" fill="#83be36"/>
<polygon points="1337.9,583.9 1450.2,620.0 1416.7,713.7" fill="#7ccc40"/>
<polygon points="1337.9,583.9 1416.7,713.7 1277.5,733.0" fill="#9bd53b"/>
<polygon points="1450.2,620.0 1507.4,567.2 1416.7,713.7" fill="#7bcd42"/>
<polygon points="1507.4,567.2 1557.9,745.9 1416.7,713.7" fill="#9cd93d"/>
<polygon points="1507.4,567.2 1633.0,566.1 1646.8,718.4" fill="#70c641"/>
<polygon points="1507.4,567.2 1646.8,718.4 1557.9,745.9" fill="#9ad43a"/>
<polygon points="1633.0,566.1 1778.0,567.9 1646.8,718.4" fill="#69b93d"/>
<polygon points="1778.0,567.9 1770.5,709.1 1646.8,718.4" fill="#7fb936"/>
<polygon points="1778.0,567.9 1880.5,556.1 1905.7,703.6" fill="#6dc543"/>
<polygon points="1778.0,567.9 1905.7,703.6 1770.5,709.1" fill="#83c43a"/>
<polygon points="1880.5,556.1 2043.7,576.5 1905.7,703.6" fill="#6dc342"/>
<polygon points="2043.7,576.5 2009.1,706.0 1905.7,703.6" fill="#91d63f"/>
<polygon points="2043.7,576.5 2124.0,586.2 2124.0,748.6" fill="#86dc45"/>
<polygon points="2043.7,576.5 2124.0,748.6 2009.1,706.0" fill="#92c837"/>
<polygon points="1185.5,684.9 1277.5,733.0 1339.6,816.6" fill="#bbc227"/>
<polygon points="1185.5,684.9 1339.6,816.6 1223.0,800.2" fill="#ded526"/>
<polygon points="1277.5,733.0 1416.7,713.7 1339.6,816.6" fill="#b6b723"/>
<polygon points="1416.7,713.7 1414.8,871.1 1339.6,816.6" fill="#f8d81f"/>
<polygon points="1416.7,713.7 1557.9,745.9 1564.6,794.9" fill="#c2c526"/>
<polygon points="1416.7,713.7 1564.6,794.9 1414.8,871.1" fill="#f9dd21"/>
<polygon points="1557.9,745.9 1646.8,718.4 1564.6,794.9" fill="#b8ba24"/>
<polygon points="1646.8,718.4 1645.7,827.4 1564.6,794.9" fill="#daca21"/>
<polygon points="1646.8,718.4 1770.5,709.1 1755.2,798.0" fill="#cad32b"/>
<polygon points="1646.8,718.4 1755.2,798.0 1645.7,827.4" fill="#d0bf1f"/>
<polygon points="1770.5,709.1 1905.7,703.6 1755.2,798.0" fill="#bcc82a"/>
<polygon points="1905.7,703.6 1871.3,846.4 1755.2,798.0" fill="#d8c720"/>
<polygon points="1905.7,703.6 2009.1,706.0 1961.8,831.0" fill="#bec527"/>
<polygon points="1905.7,703.6 1961.8,831.0 1871.3,846.4" fill="#e2c91e"/>
<polygon points="2009.1,706.0 2124.0,748.6 1961.8,831.0" fill="#e2de29"/>
<polygon points="2124.0,748.6 2124.0,820.5 1961.8,831.0" fill="#e7c91d"/>
<polygon points="1223.0,800.2 1339.6,816.6 1198.4,906.2" fill="#e9b617"/>
<polygon points="1339.6,816.6 1414.8,871.1 1409.1,904.7" fill="#ffd01d"/>
<polygon points="1339.6,816.6 1409.1,904.7 1257.3,961.3" fill="#eaa018"/>
<polygon points="1414.8,871.1 1564.6,794.9 1409.1,904.7" fill="#ffd41c"/>
<polygon points="1564.6,794.9 1574.3,956.4 1409.1,904.7" fill="#e5a118"/>
<polygon points="1564.6,794.9 1645.7,827.4 1679.7,905.7" fill="#f8c219"/>
<polygon points="1564.6,794.9 1679.7,905.7 1574.3,956.4" fill="#ffb71b"/>
<polygon points="1645.7,827.4 1755.2,798.0 1679.7,905.7" fill="#ebb818"/>
<polygon points="1755.2,798.0 1802.8,904.1 1679.7,905.7" fill="#efae19"/>
<polygon points="1755.2,798.0 1871.3,846.4 1921.4,939.7" fill="#ffcc1d"/>
<polygon points="1755.2,798.0 1921.4,939.7 1802.8,904.1" fill="#eda819"/>
<polygon points="1871.3,846.4 1961.8,831.0 1921.4,939.7" fill="#f9b41a"/>
<polygon points="1961.8,831.0 1991.2,948.9 1921.4,939.7" fill="#f8a41b"/>
<polygon points="1961.8,831.0 2124.0,820.5 2124.0,983.3" fill="#f0ab19"/>
<polygon points="1961.8,831.0 2124.0,983.3 1991.2,948.9" fill="#ffb01e"/>
<polygon points="1409.1,904.7 1574.3,956.4 1564.8,1052.2" fill="#fb871c"/>
<polygon points="1574.3,956.4 1679.7,905.7 1564.8,1052.2" fill="#ff8a1d"/>
<polygon points="1679.7,905.7 1652.6,1079.3 1564.8,1052.2" fill="#ff811a"/>
<polygon points="1679.7,905.7 1802.8,904.1 1814.4,1047.5" fill="#ff9a1e"/>
<polygon points="1679.7,905.7 1814.4,1047.5 1652.6,1079.3" fill="#ff7e1a"/>
<polygon points="1802.8,904.1 1921.4,939.7 1814.4,1047.5" fill="#ff8d1d"/>
<polygon points="1921.4,939.7 1918.6,1081.0 1814.4,1047.5" fill="#ff861b"/>
<polygon points="1921.4,939.7 1991.2,948.9 2018.5,1053.2" fill="#ff911f"/>
<polygon points="1921.4,939.7 2018.5,1053.2 1918.6,1081.0" fill="#ff801a"/>
<polygon points="1991.2,948.9 2124.0,983.3 2018.5,1053.2" fill="#ed7a19"/>
<polygon points="2124.0,983.3 2124.0,1048.0 2018.5,1053.2" fill="#fe7817"/>
<polygon points="1564.8,1052.2 1652.6,1079.3 1652.4,1134.5" fill="#ff6d14"/>
<polygon points="1652.6,1079.3 1814.4,1047.5 1652.4,1134.5" fill="#ff6b14"/>
<polygon points="1814.4,1047.5 1748.3,1142.3 1652.4,1134.5" fill="#ff7215"/>
<polygon points="1814.4,1047.5 1918.6,1081.0 1878.8,1137.8" fill="#ff7516"/>
<polygon points="1814.4,1047.5 1878.8,1137.8 1748.3,1142.3" fill="#f96713"/>
<polygon points="1918.6,1081.0 2018.5,1053.2 1878.8,1137.8" fill="#f16412"/>
<polygon points="2018.5,1053.2 1962.1,1162.0 1878.8,1137.8" fill="#ff6b14"/>
<polygon points="2018.5,1053.2 2124.0,1048.0 2124.0,1155.4" fill="#ff7015"/>
<polygon points="2018.5,1053.2 2124.0,1155.4 1962.1,1162.0" fill="#ec6212"/>
</svg>